# Blender 5.2.0 LTS
# www.blender.org
mtllib NeviCLow.mtl
o TABLE-BASE
usemtl TABLE-BASE
v -0.661093 0.016044 0.036922
v -0.661445 0.011961 0.696561
v -0.661610 0.017847 0.696561
v -0.697625 0.015543 0.036922
v -0.697825 0.016044 0.696561
v -0.708709 0.025981 0.012243
v -0.650209 0.026259 0.012243
v -0.708709 0.026259 0.721240
v -0.650209 0.025981 0.721240
v -0.705756 0.641130 0.226705
v -0.706432 0.629710 0.226028
v -0.705214 0.629710 0.227247
v -0.653704 0.641130 0.227247
v -0.653162 0.629710 0.226705
v -0.705756 0.629710 0.309298
v -0.706432 0.641130 0.309975
v -0.705214 0.641130 0.308756
v -0.653704 0.629710 0.308756
v -0.652486 0.629710 0.309975
v -0.652486 0.641130 0.226028
v -0.653162 0.641130 0.309298
v -0.704932 0.035519 0.308474
v -0.704932 0.035663 0.227529
v -0.653986 0.035663 0.308474
v -0.653986 0.035519 0.227529
v -0.707714 0.629710 0.311256
v -0.708932 0.629710 0.312475
v -0.708256 0.028210 0.311798
v -0.650662 0.629710 0.311798
v -0.651204 0.028210 0.311256
v -0.649986 0.028210 0.312475
v -0.708932 0.028210 0.223528
v -0.708256 0.629710 0.224205
v -0.707714 0.028210 0.224747
v -0.649986 0.629710 0.223528
v -0.650662 0.028210 0.224205
v -0.651204 0.629710 0.224747
v -0.721129 0.622888 0.235631
v -0.722459 0.676232 0.661806
v -0.719799 0.675804 0.661451
v -0.719974 0.691667 0.662651
v -0.723099 0.691792 0.662651
v -0.697912 0.693950 0.662198
v -0.720525 0.695265 0.319411
v -0.721193 0.691976 0.319411
v -0.719915 0.692158 0.216591
v -0.722887 0.693598 0.216591
v -0.721499 0.691725 0.071212
v -0.716799 0.695315 0.216646
v -0.716799 0.691987 0.216591
v -0.649459 0.692769 0.216631
v -0.649459 0.695825 0.216736
v -0.697006 0.693950 0.146578
v -0.649912 0.693950 0.147485
v -0.716828 0.649713 0.220251
v -0.649912 0.648233 0.218921
v -0.716835 0.649689 0.217591
v -0.721129 0.676400 0.072027
v -0.716799 0.692640 0.319362
v -0.716799 0.695352 0.319231
v -0.649459 0.695709 0.319298
v -0.649459 0.692737 0.319380
v -0.716346 0.648233 0.317081
v -0.649912 0.648233 0.317081
v -0.697006 0.693950 0.389425
v -0.649912 0.693950 0.388518
v -0.718959 0.648111 0.221382
v -0.403959 0.648975 0.222156
v -0.403959 0.648111 0.314621
v -0.718959 0.648975 0.313847
v -0.403959 0.649679 0.313124
v -0.718959 0.649679 0.222879
v -0.718959 0.693430 0.295001
v -0.403959 0.693430 0.295001
v -0.403959 0.693885 0.313847
v -0.718959 0.693181 0.313124
v -0.718959 0.694749 0.314621
v -0.403959 0.695330 0.295001
v -0.718959 0.695330 0.295001
v -0.717833 0.694317 0.292416
v -0.405085 0.694443 0.292416
v -0.718959 0.693885 0.222156
v -0.403959 0.693181 0.222879
v -0.403959 0.693430 0.241001
v -0.718959 0.693430 0.241001
v -0.718959 0.695330 0.241001
v -0.403959 0.695330 0.241001
v -0.403959 0.694749 0.221382
v -0.717833 0.694317 0.243586
v -0.405085 0.694443 0.243586
v -0.706521 0.692361 0.308821
v -0.706794 0.692344 0.313001
v -0.696103 0.692382 0.313001
v -0.696094 0.692358 0.308821
v -0.649755 0.692322 0.313001
v -0.649830 0.692323 0.308821
v -0.650516 0.641392 0.307593
v -0.650789 0.643335 0.312586
v -0.708540 0.645453 0.310296
v -0.708661 0.641103 0.307871
v -0.709459 0.641130 0.228647
v -0.709459 0.641130 0.307356
v -0.709163 0.692322 0.227181
v -0.709088 0.692323 0.223001
v -0.662824 0.692358 0.227181
v -0.662816 0.692382 0.223001
v -0.652128 0.692356 0.227181
v -0.652392 0.692350 0.223001
v -0.650676 0.643359 0.223452
v -0.650568 0.641409 0.228416
v -0.708586 0.645491 0.225653
v -0.708693 0.641103 0.228130
v -0.651966 0.619681 0.310499
v -0.706956 0.619681 0.310495
v -0.707078 0.631036 0.310624
v -0.651837 0.631036 0.310621
v -0.651962 0.619681 0.225508
v -0.706952 0.619681 0.225504
v -0.707081 0.631036 0.225382
v -0.651840 0.631036 0.225379
v -0.697912 0.693950 0.071665
v 0.661127 0.011961 0.036922
v 0.660775 0.016044 0.696561
v 0.661292 0.017847 0.036922
v 0.697507 0.016044 0.036922
v 0.697307 0.015543 0.696561
v 0.708391 0.026259 0.012243
v 0.649891 0.025981 0.012243
v 0.708391 0.025981 0.721240
v 0.649891 0.026259 0.721240
v 0.706114 0.641130 0.226028
v 0.705438 0.629710 0.226705
v 0.704896 0.641130 0.227247
v 0.652844 0.641130 0.226705
v 0.652168 0.629710 0.226028
v 0.653386 0.629710 0.227247
v 0.705438 0.641130 0.309298
v 0.706114 0.629710 0.309975
v 0.704896 0.629710 0.308756
v 0.652168 0.641130 0.309975
v 0.653386 0.641130 0.308756
v 0.652844 0.629710 0.309298
v 0.704614 0.035663 0.308474
v 0.704614 0.035519 0.227529
v 0.653668 0.035519 0.308474
v 0.653668 0.035663 0.227529
v 0.707938 0.629710 0.311798
v 0.708614 0.028210 0.312475
v 0.707396 0.028210 0.311256
v 0.650886 0.629710 0.311256
v 0.649668 0.629710 0.312475
v 0.650344 0.028210 0.311798
v 0.707938 0.028210 0.224205
v 0.707396 0.629710 0.224747
v 0.708614 0.629710 0.223528
v 0.649668 0.028210 0.223528
v 0.650344 0.629710 0.224205
v 0.650886 0.028210 0.224747
v 0.720811 0.622888 0.235631
v 0.720811 0.676007 0.661638
v 0.721181 0.691725 0.662651
v 0.697594 0.693950 0.662198
v 0.722570 0.693607 0.319411
v 0.719598 0.692160 0.319411
v 0.720876 0.691979 0.216591
v 0.720207 0.695265 0.216591
v 0.722781 0.691792 0.071212
v 0.719656 0.691667 0.071212
v 0.716481 0.693544 0.216382
v 0.716481 0.692146 0.216534
v 0.649141 0.694307 0.216673
v 0.649594 0.693950 0.147485
v 0.696688 0.693950 0.146578
v 0.716514 0.649701 0.218921
v 0.649594 0.648233 0.218921
v 0.719481 0.676269 0.072159
v 0.716481 0.692638 0.319372
v 0.716481 0.695345 0.319265
v 0.649141 0.693712 0.316152
v 0.649141 0.693827 0.319423
v 0.716028 0.648233 0.317081
v 0.649594 0.648233 0.317081
v 0.649594 0.693950 0.388518
v 0.696688 0.693950 0.389425
v 0.718641 0.648111 0.314621
v 0.403641 0.648975 0.313847
v 0.403641 0.648111 0.221382
v 0.718641 0.648975 0.222156
v 0.403641 0.649679 0.222879
v 0.718641 0.649679 0.313124
v 0.718641 0.693885 0.313847
v 0.403641 0.693181 0.313124
v 0.403641 0.693430 0.295001
v 0.718641 0.693430 0.295001
v 0.718641 0.695330 0.295001
v 0.403641 0.695330 0.295001
v 0.403641 0.694749 0.314621
v 0.717515 0.694443 0.292416
v 0.404767 0.694317 0.292416
v 0.718641 0.693430 0.241001
v 0.403641 0.693430 0.241001
v 0.403641 0.693885 0.222156
v 0.718641 0.693181 0.222879
v 0.718641 0.694749 0.221382
v 0.403641 0.695330 0.241001
v 0.718641 0.695330 0.241001
v 0.717515 0.694443 0.243586
v 0.404767 0.694317 0.243586
v 0.706476 0.692344 0.308821
v 0.706203 0.692361 0.313001
v 0.695785 0.692382 0.308821
v 0.695776 0.692358 0.313001
v 0.649437 0.692322 0.308821
v 0.649512 0.692323 0.313001
v 0.650154 0.645282 0.310478
v 0.708181 0.644577 0.312901
v 0.708183 0.641402 0.307593
v 0.649398 0.641119 0.307839
v 0.709022 0.641148 0.228414
v 0.649141 0.641130 0.307356
v 0.650180 0.641616 0.228580
v 0.708770 0.692323 0.227181
v 0.708845 0.692322 0.223001
v 0.662506 0.692358 0.223001
v 0.662498 0.692382 0.227181
v 0.651810 0.692356 0.223001
v 0.652074 0.692350 0.227181
v 0.650701 0.641086 0.227730
v 0.708055 0.645153 0.225480
v 0.651644 0.619681 0.310495
v 0.706634 0.619681 0.310499
v 0.706763 0.631036 0.310621
v 0.651522 0.631036 0.310624
v 0.651648 0.619681 0.225504
v 0.706638 0.619681 0.225508
v 0.706760 0.631036 0.225379
v 0.651519 0.631036 0.225382
v 0.722141 0.676531 0.071918
v 0.697594 0.693950 0.071665
vn -0.9996 -0.0281 -0.0007
vn -0.0000 -0.0000 -1.0000
vn -0.0137 0.9999 0.0062
vn 0.1115 0.9938 -0.0007
vn -0.0137 0.9999 -0.0027
vn -0.0497 0.9988 -0.0008
vn 0.0048 1.0000 0.0004
vn -0.0048 1.0000 -0.0004
vn 0.0048 -1.0000 -0.0004
vn -0.0048 -1.0000 0.0004
vn -0.0000 1.0000 -0.0000
vn -0.0127 0.0599 -0.9981
vn 0.0127 -0.0599 -0.9981
vn -0.0000 -1.0000 0.0001
vn -0.0104 -0.0479 0.9988
vn 0.0104 0.0479 0.9988
vn -0.9982 -0.0596 0.0081
vn -0.9982 0.0596 -0.0081
vn -0.0000 -1.0000 -0.0000
vn 0.9988 -0.0477 -0.0066
vn 0.9988 0.0477 0.0066
vn -0.0000 -1.0000 -0.0001
vn 0.0127 0.0599 0.9981
vn -0.0127 -0.0599 0.9981
vn 0.0104 -0.0479 -0.9988
vn -0.0104 0.0479 -0.9988
vn 0.9982 0.0596 0.0081
vn 0.9982 -0.0596 -0.0081
vn -0.9988 0.0477 -0.0066
vn -0.9988 -0.0477 0.0066
vn 0.0028 1.0000 -0.0018
vn -0.0028 1.0000 0.0018
vn -0.0028 -1.0000 -0.0018
vn 0.0028 -1.0000 0.0018
vn -0.0000 1.0000 0.0001
vn 0.0116 0.0011 0.9999
vn -0.0116 -0.0011 0.9999
vn 0.0095 -0.0009 -1.0000
vn -0.0095 0.0009 -1.0000
vn -1.0000 -0.0011 0.0077
vn -1.0000 0.0011 -0.0077
vn 1.0000 -0.0009 -0.0062
vn 1.0000 0.0009 0.0062
vn -0.0000 1.0000 -0.0001
vn -0.0116 0.0011 -0.9999
vn 0.0116 -0.0011 -0.9999
vn -0.0095 -0.0009 1.0000
vn 0.0095 0.0009 1.0000
vn 1.0000 0.0011 0.0077
vn 1.0000 -0.0011 -0.0077
vn -1.0000 0.0009 -0.0062
vn -1.0000 -0.0009 0.0062
vn -0.1417 -0.9823 0.1225
vn 0.1202 -0.0736 0.9900
vn -0.0022 -0.0543 0.9985
vn 0.0057 0.1416 0.9899
vn -0.9800 0.1991 -0.0053
vn 0.4362 0.8998 0.0070
vn -0.0012 -0.0165 0.9999
vn -0.0087 0.9997 0.0227
vn -0.0003 0.9999 0.0171
vn -0.0303 0.9995 -0.0062
vn 0.0005 0.9996 -0.0271
vn 0.0001 0.0002 1.0000
vn -0.0043 -0.0165 0.9999
vn 1.0000 0.0002 -0.0065
vn 0.0209 0.0457 0.9987
vn -0.0071 0.0863 0.9962
vn -0.0187 0.0515 0.9985
vn -0.0009 0.0236 0.9997
vn 0.9930 -0.0040 0.1178
vn 0.0219 0.9997 -0.0090
vn 0.9999 0.0112 -0.0026
vn 0.9997 0.0240 -0.0022
vn -1.0000 0.0069 0.0023
vn -0.0007 -0.0466 0.9989
vn -0.0000 -0.0456 0.9990
vn -0.0002 -0.0516 0.9987
vn -0.0000 -0.0513 0.9987
vn -0.9948 -0.0049 -0.1019
vn 0.9919 -0.0035 -0.1271
vn -0.0041 -0.0482 -0.9988
vn -0.0487 0.0099 -0.9988
vn -0.0062 0.9998 0.0209
vn 0.0005 0.9997 0.0254
vn 0.0252 0.9996 0.0103
vn -0.0854 0.9963 -0.0003
vn -0.0106 0.9996 -0.0245
vn -0.0003 0.9998 -0.0175
vn -0.0848 0.9964 0.0012
vn -0.1029 0.9947 -0.0003
vn -1.0000 -0.0002 -0.0066
vn 0.0028 -1.0000 -0.0094
vn -0.0028 -1.0000 0.0094
vn -0.0023 1.0000 -0.0077
vn 0.0023 1.0000 0.0077
vn 1.0000 -0.0000 -0.0000
vn -1.0000 -0.0000 -0.0000
vn -0.0025 -0.0169 0.9999
vn 0.0025 0.0169 0.9999
vn -0.0023 -0.0164 -0.9999
vn 0.0023 0.0164 -0.9999
vn -0.0000 -0.9997 0.0241
vn 0.0023 -0.9999 -0.0137
vn 0.0029 0.9971 0.0765
vn -0.0000 0.9996 0.0296
vn 0.9168 -0.0000 0.3994
vn -0.0000 0.9459 -0.3245
vn -0.0004 0.9310 -0.3651
vn 0.9168 -0.0000 -0.3994
vn -0.0000 -0.9459 -0.3245
vn 0.0004 -0.9310 -0.3651
vn 0.0025 -0.0169 -0.9999
vn -0.0025 0.0169 -0.9999
vn -0.0023 0.0164 0.9999
vn 0.0023 -0.0164 0.9999
vn -0.0023 -0.9999 0.0137
vn -0.0000 -0.9997 -0.0241
vn -0.0000 0.9996 -0.0296
vn -0.0029 0.9971 -0.0765
vn -0.0000 -0.0000 1.0000
vn -0.9168 -0.0000 0.3994
vn -0.9168 -0.0000 -0.3994
vn -0.0035 1.0000 0.0039
vn 0.0003 1.0000 -0.0057
vn 0.0013 1.0000 -0.0057
vn 0.0008 1.0000 0.0003
vn -0.9998 0.0130 0.0179
vn -0.9978 0.0216 -0.0629
vn -0.9970 0.0409 -0.0651
vn -0.0000 0.0085 -1.0000
vn 0.0416 0.0560 -0.9976
vn 0.0524 0.4851 -0.8729
vn 0.0064 -0.9318 0.3628
vn -0.9805 0.1963 -0.0000
vn -0.9782 0.2075 0.0006
vn 0.5045 0.4096 -0.7600
vn -0.0000 0.0241 -0.9997
vn -0.0486 -0.0293 -0.9984
vn 0.0698 0.9976 0.0002
vn 0.0702 0.9975 0.0004
vn -0.0045 1.0000 0.0002
vn -0.0047 1.0000 -0.0000
vn -0.0013 1.0000 0.0057
vn -0.0008 1.0000 0.0003
vn 0.0031 1.0000 -0.0018
vn 0.0002 1.0000 0.0057
vn -0.9995 -0.0304 0.0099
vn -0.9974 -0.0344 0.0631
vn -0.9998 -0.0117 -0.0179
vn 0.0384 0.0105 0.9992
vn -0.0000 0.0565 0.9984
vn -0.0511 -0.4901 -0.8702
vn -0.0067 0.9307 0.3657
vn 0.5198 0.4104 0.7493
vn -0.0460 0.0228 0.9987
vn -0.0000 -0.0326 0.9995
vn -0.0001 -0.0114 0.9999
vn 0.0001 -0.0107 0.9999
vn 0.0001 -0.0114 -0.9999
vn -0.0001 -0.0107 -0.9999
vn -0.9999 0.0107 -0.0000
vn -0.9999 0.0114 -0.0000
vn 0.9999 0.0114 -0.0000
vn 0.9999 0.0107 -0.0000
vn -0.0752 0.9972 0.0009
vn -0.0939 0.9956 -0.0019
vn -0.0132 0.9999 0.0002
vn -0.0936 0.9955 -0.0137
vn -1.0000 -0.0069 -0.0023
vn 0.9992 0.0409 0.0027
vn 0.9997 0.0242 0.0023
vn 0.9996 -0.0281 0.0007
vn -0.1115 0.9938 0.0007
vn 0.0137 0.9999 -0.0062
vn 0.0497 0.9988 0.0008
vn 0.0137 0.9999 0.0027
vn 0.9798 0.1994 0.0126
vn -0.4376 0.8991 -0.0070
vn 0.0324 0.9995 -0.0049
vn 0.0005 0.9996 0.0280
vn -0.0135 0.9999 -0.0053
vn -0.0004 0.9998 -0.0187
vn -0.0090 0.1080 0.9941
vn -0.0514 -0.0105 0.9986
vn 0.0049 0.0488 0.9988
vn -0.0013 0.0578 0.9983
vn 0.0036 0.0488 0.9988
vn -0.0012 0.0562 0.9984
vn -0.9997 0.0234 0.0023
vn -0.9999 0.0115 0.0026
vn 0.9998 0.0180 -0.0022
vn -0.0226 0.9991 -0.0349
vn -0.0450 -0.0458 0.9979
vn -0.0000 0.0204 0.9998
vn -0.0002 -0.0515 0.9987
vn 0.9938 -0.0044 -0.1114
vn -1.0000 -0.0100 0.0003
vn 0.0096 -0.0198 -0.9998
vn 0.0128 -0.0394 -0.9991
vn 0.0001 1.0000 -0.0049
vn 0.0030 1.0000 -0.0018
vn 0.0938 0.9956 0.0058
vn 0.0131 0.9999 -0.0000
vn 0.0005 0.9997 -0.0254
vn 0.0236 0.9997 -0.0019
vn 0.0939 0.9956 0.0008
vn 0.0771 0.9970 -0.0003
vn -0.0028 -1.0000 0.0093
vn 0.0028 -1.0000 -0.0093
vn -0.9168 -0.0000 0.3993
vn -0.0000 0.9459 -0.3244
vn 0.9168 -0.0000 0.3993
vn -0.0000 -0.9459 -0.3244
vn -0.0003 1.0000 0.0057
vn 0.0035 1.0000 -0.0039
vn -0.0008 1.0000 -0.0003
vn 0.9997 0.0146 -0.0179
vn 0.9992 0.0340 -0.0198
vn 0.9970 0.0411 0.0651
vn 0.0423 0.0541 -0.9976
vn -0.0000 0.0021 -1.0000
vn 0.0063 -0.8581 0.5134
vn -0.0418 -0.5296 0.8472
vn 0.9704 0.2414 0.0095
vn 0.9695 -0.2449 0.0113
vn 0.8762 0.1345 -0.4628
vn -0.0520 -0.0359 -0.9980
vn -0.0633 0.9970 -0.0447
vn 0.0689 0.9966 0.0454
vn 0.0080 0.9999 0.0063
vn -0.0046 1.0000 -0.0032
vn 0.0008 1.0000 -0.0003
vn -0.0002 1.0000 -0.0057
vn -0.0031 1.0000 0.0017
vn 0.9972 -0.0390 -0.0631
vn 0.8601 0.0284 0.5093
vn 0.9997 -0.0158 0.0179
vn 0.0001 0.0918 0.9958
vn 0.0355 0.0518 0.9980
vn -0.0101 0.5893 0.8078
vn -0.0000 0.0276 0.9996
vn 0.0557 -0.0368 0.9978
vn 0.0654 -0.9484 -0.3102
vn -0.0842 -0.0602 -0.9946
vn 0.0019 -0.0463 -0.9989
vn -0.0057 0.1416 -0.9899
vn 0.1030 0.9947 0.0012
vn 0.0895 0.9960 -0.0029
vn 0.0854 0.9963 0.0010
vn 0.0144 0.9996 -0.0236
vn 0.9998 -0.0180 0.0022
vn -0.9997 0.0236 -0.0022
vn -0.9991 0.0418 -0.0027
s 0
usemtl TABLE-BASE
f 1//1 2//1 3//1
f 3//2 2//2 5//2
f 2//3 1//3 4//3
f 2//4 4//4 5//4
f 3//5 1//5 4//5
f 3//6 4//6 5//6
f 8//7 9//7 7//7
f 8//8 7//8 6//8
f 6//9 7//9 9//9
f 6//10 9//10 8//10
f 20//11 10//11 13//11
f 11//12 10//12 20//12
f 11//13 20//13 14//13
f 12//14 11//14 14//14
f 14//15 13//15 10//15
f 14//16 10//16 12//16
f 11//17 15//17 16//17
f 11//18 16//18 10//18
f 12//19 15//19 11//19
f 10//20 17//20 15//20
f 10//21 15//21 12//21
f 10//11 16//11 17//11
f 18//22 19//22 15//22
f 19//23 21//23 16//23
f 19//24 16//24 15//24
f 21//11 17//11 16//11
f 15//25 17//25 21//25
f 15//26 21//26 18//26
f 20//27 21//27 19//27
f 20//28 19//28 14//28
f 21//11 20//11 13//11
f 14//29 18//29 21//29
f 14//30 21//30 13//30
f 14//19 19//19 18//19
f 24//31 25//31 23//31
f 24//32 23//32 22//32
f 22//33 23//33 25//33
f 22//34 25//34 24//34
f 27//35 29//35 26//35
f 30//19 31//19 28//19
f 31//36 29//36 27//36
f 31//37 27//37 28//37
f 28//38 26//38 29//38
f 28//39 29//39 30//39
f 32//40 28//40 27//40
f 32//41 27//41 33//41
f 33//42 26//42 28//42
f 33//43 28//43 34//43
f 33//11 27//11 26//11
f 34//19 28//19 32//19
f 33//44 37//44 35//44
f 34//19 32//19 36//19
f 32//45 33//45 35//45
f 32//46 35//46 36//46
f 36//47 37//47 33//47
f 36//48 33//48 34//48
f 35//49 29//49 31//49
f 35//50 31//50 36//50
f 36//51 30//51 29//51
f 36//52 29//52 37//52
f 29//11 35//11 37//11
f 36//19 31//19 30//19
f 38//53 40//53 39//53
f 39//54 40//54 41//54
f 39//55 41//55 42//55
f 42//56 41//56 43//56
f 42//57 44//57 45//57
f 46//58 47//58 45//58
f 52//59 49//59 50//59
f 53//60 46//60 51//60
f 53//61 51//61 54//61
f 53//62 47//62 52//62
f 53//63 52//63 54//63
f 47//64 46//64 50//64
f 47//65 50//65 49//65
f 54//66 52//66 51//66
f 55//67 56//67 52//67
f 55//68 52//68 50//68
f 57//69 56//69 51//69
f 57//70 51//70 50//70
f 51//71 52//71 56//71
f 56//72 57//72 55//72
f 48//73 41//73 40//73
f 48//74 40//74 58//74
f 58//75 38//75 40//75
f 64//76 61//76 60//76
f 64//77 60//77 63//77
f 64//78 62//78 59//78
f 64//79 59//79 63//79
f 59//80 60//80 63//80
f 64//81 61//81 62//81
f 60//82 59//82 45//82
f 60//83 45//83 44//83
f 61//84 44//84 65//84
f 61//85 65//85 66//85
f 65//86 44//86 42//86
f 65//87 42//87 43//87
f 62//88 45//88 65//88
f 62//89 65//89 66//89
f 65//90 45//90 41//90
f 65//91 41//91 43//91
f 66//92 61//92 62//92
f 67//93 68//93 69//93
f 67//94 69//94 70//94
f 70//95 71//95 68//95
f 70//96 68//96 72//96
f 68//97 71//97 69//97
f 67//98 70//98 72//98
f 77//99 70//99 69//99
f 77//100 69//100 75//100
f 71//101 70//101 76//101
f 71//102 76//102 75//102
f 70//98 77//98 76//98
f 75//97 69//97 71//97
f 73//103 74//103 75//103
f 73//104 75//104 76//104
f 77//105 75//105 78//105
f 77//106 78//106 79//106
f 79//2 78//2 74//2
f 79//2 74//2 73//2
f 78//97 75//97 74//97
f 73//98 76//98 77//98
f 73//98 77//98 79//98
f 79//107 73//107 80//107
f 79//108 78//108 81//108
f 79//109 81//109 80//109
f 78//110 74//110 81//110
f 74//111 73//111 80//111
f 74//112 80//112 81//112
f 88//113 68//113 67//113
f 88//114 67//114 82//114
f 83//115 82//115 72//115
f 83//116 72//116 68//116
f 82//98 67//98 72//98
f 68//97 88//97 83//97
f 82//117 83//117 84//117
f 82//118 84//118 85//118
f 86//119 87//119 88//119
f 86//120 88//120 82//120
f 85//121 84//121 87//121
f 85//121 87//121 86//121
f 84//97 83//97 88//97
f 84//97 88//97 87//97
f 86//98 82//98 85//98
f 86//122 85//122 89//122
f 86//111 87//111 90//111
f 86//112 90//112 89//112
f 87//123 84//123 90//123
f 84//108 85//108 89//108
f 84//109 89//109 90//109
f 91//124 92//124 93//124
f 91//125 93//125 94//125
f 94//126 93//126 95//126
f 94//127 95//127 96//127
f 95//128 96//128 97//128
f 95//129 97//129 98//129
f 92//130 91//130 99//130
f 92//131 95//131 98//131
f 92//132 98//132 99//132
f 99//133 98//133 100//133
f 98//134 100//134 97//134
f 111//135 101//135 102//135
f 111//136 102//136 99//136
f 102//137 99//137 100//137
f 91//138 96//138 97//138
f 91//139 97//139 99//139
f 99//140 97//140 110//140
f 99//141 110//141 111//141
f 102//142 97//142 110//142
f 102//143 110//143 101//143
f 105//144 106//144 104//144
f 105//145 104//145 103//145
f 107//146 108//146 106//146
f 107//147 106//147 105//147
f 109//148 110//148 107//148
f 109//149 107//149 108//149
f 111//150 103//150 104//150
f 111//151 109//151 108//151
f 111//152 108//152 104//152
f 111//153 109//153 112//153
f 109//154 112//154 110//154
f 112//155 111//155 101//155
f 111//156 110//156 107//156
f 111//157 107//157 103//157
f 115//158 114//158 113//158
f 115//159 113//159 116//159
f 120//160 117//160 118//160
f 120//161 118//161 119//161
f 116//162 120//162 117//162
f 116//163 117//163 113//163
f 114//164 118//164 119//164
f 114//165 119//165 115//165
f 46//166 53//166 121//166
f 46//167 121//167 48//167
f 47//168 53//168 121//168
f 47//169 121//169 48//169
f 58//170 38//170 39//170
f 48//171 42//171 39//171
f 48//172 39//172 58//172
f 124//173 123//173 122//173
f 125//2 122//2 124//2
f 126//174 125//174 122//174
f 126//175 122//175 123//175
f 126//176 125//176 124//176
f 126//177 124//177 123//177
f 127//8 128//8 130//8
f 127//7 130//7 129//7
f 129//10 130//10 128//10
f 129//9 128//9 127//9
f 134//11 133//11 131//11
f 135//12 134//12 131//12
f 135//13 131//13 132//13
f 136//19 135//19 132//19
f 132//15 133//15 134//15
f 132//16 134//16 136//16
f 131//27 137//27 138//27
f 131//28 138//28 132//28
f 132//19 138//19 139//19
f 132//29 139//29 137//29
f 132//30 137//30 133//30
f 137//11 131//11 133//11
f 139//22 138//22 142//22
f 138//23 137//23 140//23
f 138//24 140//24 142//24
f 140//11 137//11 141//11
f 142//25 141//25 137//25
f 142//26 137//26 139//26
f 135//17 142//17 140//17
f 135//18 140//18 134//18
f 134//11 140//11 141//11
f 134//20 141//20 142//20
f 134//21 142//21 136//21
f 136//19 142//19 135//19
f 143//31 144//31 146//31
f 143//32 146//32 145//32
f 145//33 146//33 144//33
f 145//34 144//34 143//34
f 147//35 150//35 151//35
f 149//19 148//19 152//19
f 148//36 147//36 151//36
f 148//37 151//37 152//37
f 152//38 150//38 147//38
f 152//39 147//39 149//39
f 155//49 147//49 148//49
f 155//50 148//50 153//50
f 153//51 149//51 147//51
f 153//52 147//52 154//52
f 147//11 155//11 154//11
f 153//19 148//19 149//19
f 155//44 157//44 154//44
f 158//19 156//19 153//19
f 156//45 157//45 155//45
f 156//46 155//46 153//46
f 153//47 154//47 157//47
f 153//48 157//48 158//48
f 156//40 152//40 151//40
f 156//41 151//41 157//41
f 157//42 150//42 152//42
f 157//43 152//43 158//43
f 157//11 151//11 150//11
f 158//19 152//19 156//19
f 165//178 167//178 166//178
f 164//179 163//179 165//179
f 172//180 171//180 165//180
f 172//181 165//181 173//181
f 172//182 171//182 166//182
f 172//183 166//183 173//183
f 169//184 170//184 165//184
f 169//185 165//185 166//185
f 169//186 171//186 175//186
f 169//187 175//187 174//187
f 170//188 171//188 175//188
f 170//189 175//189 174//189
f 176//190 160//190 161//190
f 176//191 161//191 168//191
f 160//192 159//192 176//192
f 178//193 179//193 180//193
f 181//194 178//194 179//194
f 181//195 179//195 182//195
f 181//196 177//196 180//196
f 181//79 180//79 182//79
f 181//197 178//197 177//197
f 180//198 179//198 182//198
f 163//199 164//199 177//199
f 163//200 177//200 178//200
f 183//201 184//201 163//201
f 183//202 163//202 180//202
f 162//203 161//203 163//203
f 162//204 163//204 184//204
f 183//205 184//205 164//205
f 183//206 164//206 180//206
f 162//207 161//207 164//207
f 162//208 164//208 184//208
f 185//209 186//209 187//209
f 185//210 187//210 188//210
f 188//96 189//96 186//96
f 188//95 186//95 190//95
f 187//98 186//98 189//98
f 188//97 190//97 185//97
f 197//99 186//99 185//99
f 197//100 185//100 191//100
f 192//102 191//102 190//102
f 192//101 190//101 186//101
f 191//97 185//97 190//97
f 186//98 197//98 192//98
f 191//104 192//104 193//104
f 191//103 193//103 194//103
f 195//106 196//106 197//106
f 195//105 197//105 191//105
f 194//2 193//2 196//2
f 194//2 196//2 195//2
f 193//98 192//98 197//98
f 193//98 197//98 196//98
f 195//97 191//97 194//97
f 198//211 194//211 195//211
f 198//109 199//109 196//109
f 198//212 196//212 195//212
f 199//123 193//123 196//123
f 199//112 198//112 194//112
f 199//111 194//111 193//111
f 204//113 188//113 187//113
f 204//114 187//114 202//114
f 189//116 188//116 203//116
f 189//115 203//115 202//115
f 188//97 204//97 203//97
f 202//98 187//98 189//98
f 200//118 201//118 202//118
f 200//117 202//117 203//117
f 204//120 202//120 205//120
f 204//119 205//119 206//119
f 206//121 205//121 201//121
f 206//121 201//121 200//121
f 205//98 202//98 201//98
f 200//97 203//97 204//97
f 200//97 204//97 206//97
f 207//213 200//213 206//213
f 207//112 208//112 205//112
f 207//214 205//214 206//214
f 208//110 201//110 205//110
f 208//109 207//109 200//109
f 208//108 200//108 201//108
f 211//215 212//215 210//215
f 211//216 210//216 209//216
f 213//217 214//217 212//217
f 213//144 212//144 211//144
f 215//218 213//218 214//218
f 216//219 217//219 209//219
f 216//220 209//220 210//220
f 216//221 215//221 214//221
f 216//222 214//222 210//222
f 218//223 217//223 216//223
f 218//224 216//224 215//224
f 217//225 219//225 229//225
f 215//226 220//226 221//226
f 215//227 218//227 220//227
f 217//228 215//228 213//228
f 217//138 213//138 209//138
f 229//229 221//229 215//229
f 229//230 215//230 217//230
f 219//231 221//231 220//231
f 219//232 220//232 217//232
f 222//233 223//233 224//233
f 222//126 224//126 225//126
f 225//234 224//234 226//234
f 225//235 226//235 227//235
f 226//236 227//236 221//236
f 226//237 221//237 228//237
f 223//238 222//238 229//238
f 223//239 226//239 228//239
f 223//240 228//240 229//240
f 228//241 219//241 229//241
f 222//242 227//242 221//242
f 222//243 221//243 229//243
f 233//158 230//158 231//158
f 233//159 231//159 232//159
f 236//160 235//160 234//160
f 236//161 234//161 237//161
f 230//164 234//164 237//164
f 230//165 237//165 233//165
f 232//162 236//162 235//162
f 232//163 235//163 231//163
f 159//244 176//244 238//244
f 238//245 176//245 168//245
f 238//246 168//246 167//246
f 167//247 168//247 239//247
f 168//248 239//248 173//248
f 168//249 173//249 165//249
f 167//250 239//250 173//250
f 167//251 173//251 166//251
f 160//252 159//252 238//252
f 238//253 160//253 161//253
f 238//254 161//254 167//254
o TABLE-GLIDES
usemtl TABLE-GLIDES
v -0.701311 0.001394 0.690293
v -0.692020 0.001511 0.699538
v -0.675077 0.021690 0.675541
v -0.680149 0.021647 0.682268
v -0.683171 0.021376 0.674397
v -0.682042 0.011590 0.060646
v -0.676184 0.021567 0.059486
v -0.682666 0.021567 0.058921
v -0.674785 0.011590 0.058555
v -0.667953 0.010458 0.056624
v -0.673142 0.010458 0.046334
v -0.676876 0.011590 0.051299
v -0.676987 0.021708 0.052115
v -0.684648 0.010458 0.045682
v -0.684133 0.011590 0.053390
v -0.683028 0.021460 0.052984
v -0.692020 0.001511 0.078000
v -0.679315 0.001394 0.081288
v -0.674794 0.009872 0.066549
v -0.686286 0.009872 0.065301
v -0.666688 0.001293 0.077790
v -0.657432 0.001511 0.068534
v -0.665715 0.007232 0.056964
v -0.654054 0.001650 0.055848
v -0.657607 0.001394 0.043190
v -0.666898 0.001511 0.033945
v -0.678468 0.007232 0.042229
v -0.679603 0.001394 0.030657
v -0.692230 0.001293 0.034155
v -0.701486 0.001511 0.043411
v -0.690952 0.009872 0.054724
v -0.704865 0.001650 0.056097
v -0.701311 0.001394 0.068755
v -0.683060 0.011549 0.681159
v -0.675419 0.011681 0.681356
v -0.673142 0.010458 0.667872
v -0.676852 0.011604 0.672869
v -0.684648 0.010458 0.667220
v -0.684069 0.011628 0.674817
v -0.690965 0.010458 0.676859
v -0.679315 0.001394 0.702826
v -0.674794 0.009872 0.688088
v -0.686286 0.009872 0.686839
v -0.666688 0.001293 0.699328
v -0.657432 0.001511 0.690072
v -0.667966 0.009872 0.678759
v -0.654054 0.001651 0.677386
v -0.657607 0.001394 0.664728
v -0.671729 0.007232 0.666104
v -0.666898 0.001511 0.655483
v -0.679603 0.001394 0.652195
v -0.692230 0.001293 0.655693
v -0.690866 0.007232 0.669780
v -0.701486 0.001511 0.664949
v -0.704865 0.001651 0.677635
v 0.701168 0.001511 0.690072
v 0.691912 0.001293 0.699328
v 0.679356 0.021840 0.681986
v 0.682649 0.021708 0.674493
v 0.674566 0.021893 0.678002
v 0.682955 0.021328 0.679632
v 0.672112 0.010556 0.065252
v 0.676558 0.011590 0.060646
v 0.683815 0.011590 0.058555
v 0.674466 0.020970 0.055635
v 0.675101 0.011681 0.052127
v 0.678884 0.010477 0.043980
v 0.682742 0.011549 0.052324
v 0.687717 0.010666 0.063649
v 0.684238 0.009396 0.066520
v 0.671411 0.007232 0.067379
v 0.676618 0.021840 0.059738
v 0.682089 0.021647 0.059180
v 0.691912 0.001293 0.077790
v 0.679285 0.001394 0.081288
v 0.666580 0.001511 0.078000
v 0.657289 0.001394 0.068755
v 0.668061 0.010096 0.053295
v 0.653736 0.001650 0.056097
v 0.673128 0.007232 0.043574
v 0.677409 0.021840 0.051853
v 0.657114 0.001511 0.043411
v 0.666370 0.001293 0.034155
v 0.678997 0.001394 0.030657
v 0.690035 0.009730 0.051891
v 0.683170 0.021478 0.053843
v 0.691702 0.001511 0.033945
v 0.700993 0.001394 0.043190
v 0.704547 0.001650 0.055848
v 0.701168 0.001511 0.068534
v 0.672112 0.010556 0.686790
v 0.682864 0.011608 0.681054
v 0.676534 0.011604 0.682152
v 0.668016 0.010459 0.674720
v 0.675101 0.011681 0.673665
v 0.676142 0.020970 0.673626
v 0.675995 0.010459 0.666481
v 0.683686 0.011627 0.674748
v 0.687717 0.010666 0.685187
v 0.684238 0.009396 0.688058
v 0.671411 0.007232 0.688917
v 0.679285 0.001394 0.702826
v 0.666580 0.001511 0.699538
v 0.657289 0.001394 0.690293
v 0.667734 0.007232 0.669780
v 0.653736 0.001651 0.677635
v 0.657114 0.001511 0.664949
v 0.666370 0.001293 0.655693
v 0.683571 0.009888 0.667184
v 0.678997 0.001394 0.652195
v 0.690035 0.009730 0.673429
v 0.691702 0.001511 0.655483
v 0.700993 0.001394 0.664728
v 0.704547 0.001651 0.677386
vn 0.0571 0.9984 0.0042
vn -0.0571 0.9984 -0.0042
vn -0.0857 0.1646 0.9826
vn 0.0346 -0.9474 -0.3181
vn -0.0605 -0.9759 -0.2098
vn 0.2765 -0.0508 0.9597
vn -0.2161 -0.9545 -0.2054
vn -0.1512 -0.9875 0.0436
vn 0.9604 0.0328 -0.2767
vn 0.9835 0.1476 -0.1043
vn -0.1778 -0.9800 0.0896
vn -0.0121 -0.9769 0.2135
vn 0.0410 -0.9890 0.1425
vn -0.2769 -0.0085 -0.9609
vn -0.1450 0.0780 -0.9864
vn 0.2650 -0.9564 0.1227
vn 0.2315 -0.9706 -0.0667
vn -0.9608 -0.0123 0.2769
vn -0.9918 0.1134 0.0585
vn 0.2614 -0.9583 -0.1153
vn -0.1133 0.8759 0.4691
vn -0.0576 0.8456 0.5307
vn 0.1528 0.8357 0.5276
vn 0.2543 0.9268 0.2762
vn 0.5107 0.8202 0.2577
vn -0.6845 -0.5277 -0.5030
vn 0.4381 0.8900 0.1264
vn 0.4172 0.8987 -0.1353
vn -0.7751 -0.4964 0.3908
vn 0.2713 0.9265 -0.2609
vn 0.2720 0.9331 -0.2354
vn -0.6982 0.3838 0.6043
vn 0.1099 0.8830 -0.4563
vn -0.0366 -0.7621 0.6465
vn -0.1281 0.8905 -0.4367
vn -0.3259 0.8796 -0.3466
vn -0.1769 0.9123 -0.3695
vn 0.5992 0.6551 0.4602
vn -0.5139 0.8453 -0.1461
vn -0.4603 0.8755 0.1470
vn -0.4815 0.8503 0.2124
vn -0.3873 0.8406 0.3786
vn -0.0377 0.9990 0.0232
vn 0.0016 0.9998 -0.0181
vn -0.0080 1.0000 -0.0000
vn 0.0106 0.9999 -0.0050
vn 0.0077 -1.0000 0.0049
vn -0.0280 -0.9996 -0.0044
vn 0.0080 1.0000 -0.0000
vn -0.0106 0.9999 0.0050
vn -0.0077 -1.0000 -0.0049
vn 0.0280 -0.9996 0.0044
vn 0.0236 -0.9624 -0.2707
vn -0.0239 -0.1023 0.9945
vn 0.0284 -0.9647 -0.2619
vn 0.7588 0.3076 0.5741
vn -0.3021 -0.9273 -0.2211
vn -0.2205 -0.9743 0.0460
vn 0.9780 -0.1287 -0.1640
vn -0.2262 -0.9725 0.0551
vn 0.0704 -0.9596 0.2724
vn 0.1273 0.2331 -0.9641
vn -0.0087 -0.9882 0.1528
vn -0.2607 -0.0176 -0.9653
vn 0.2041 -0.9698 0.1338
vn 0.1564 -0.9870 -0.0373
vn -0.9537 0.2579 0.1550
vn -0.9299 0.1009 0.3536
vn 0.2195 -0.9625 -0.1594
vn 0.3259 0.8796 0.3466
vn 0.4402 0.8381 0.3222
vn 0.5139 0.8453 0.1461
vn 0.3690 0.9214 -0.1223
vn 0.4607 0.8315 -0.3104
vn -0.7779 -0.5277 0.3413
vn 0.3342 0.8848 -0.3246
vn 0.1042 0.8946 -0.4345
vn -0.0491 -0.4964 0.8667
vn -0.1117 0.9195 -0.3768
vn -0.0679 0.9331 -0.3532
vn 0.1742 0.3838 0.9068
vn -0.3206 0.8835 -0.3414
vn 0.5415 -0.7621 0.3549
vn -0.4265 0.8960 -0.1234
vn -0.3885 0.9207 -0.0382
vn 0.6981 0.6551 -0.2888
vn -0.0359 0.9991 -0.0206
vn 0.0188 0.9998 -0.0093
vn -0.1800 -0.9817 -0.0619
vn -0.0392 -0.8954 -0.4435
vn -0.0423 -0.9883 -0.1469
vn -0.0173 -0.9719 -0.2349
vn 0.1041 0.0872 0.9907
vn 0.2769 -0.0122 0.9608
vn -0.8886 0.0456 0.4564
vn 0.1848 -0.9819 -0.0421
vn 0.2140 -0.9762 -0.0350
vn -0.9776 -0.1295 0.1658
vn 0.2525 -0.9333 0.2552
vn -0.7963 0.1653 -0.5818
vn -0.0207 -0.9904 0.1368
vn 0.3310 0.1287 -0.9348
vn 0.0252 -0.0326 -0.9991
vn -0.2232 -0.9484 0.2250
vn -0.2391 -0.9698 0.0476
vn 0.9854 -0.0166 -0.1696
vn -0.2615 -0.9649 0.0253
vn 0.9693 0.1544 0.1914
vn -0.1205 0.8892 0.4414
vn 0.1478 0.8480 0.5090
vn -0.1042 0.8946 0.4345
vn 0.0356 -0.5440 -0.8384
vn -0.3342 0.8848 0.3246
vn -0.4466 0.8501 0.2791
vn -0.3690 0.9214 0.1223
vn 0.8844 -0.3693 -0.2854
vn -0.3029 0.8597 -0.4112
vn -0.5236 0.8389 -0.1486
vn 0.3212 -0.9465 0.0323
vn -0.3140 0.8884 -0.3349
vn 0.4145 -0.7914 0.4492
vn -0.1339 0.8788 -0.4580
vn 0.0674 0.9095 -0.4102
vn 0.0889 0.9222 -0.3764
vn -0.4109 0.6487 0.6406
vn 0.3678 0.8579 -0.3587
vn 0.5133 0.8430 -0.1612
vn 0.3979 0.8999 0.1782
vn 0.4548 0.8809 0.1308
vn -0.4513 0.8781 -0.1588
vn 0.3545 0.8568 0.3746
vn 0.0689 0.9975 -0.0177
vn 0.0357 0.9994 0.0036
vn -0.0143 -0.9784 -0.2062
vn 0.1709 -0.0312 0.9848
vn -0.0448 -0.9644 -0.2607
vn -0.6273 0.1852 0.7565
vn 0.1898 -0.9810 -0.0409
vn 0.1629 -0.9855 -0.0474
vn -0.9288 0.1026 -0.3561
vn -0.9790 -0.1210 0.1642
vn 0.1940 -0.9628 0.1879
vn -0.0270 -0.9860 0.1643
vn -0.0940 -0.9700 0.2244
vn 0.1333 -0.0113 -0.9910
vn 0.1250 -0.0181 -0.9920
vn -0.2367 -0.9461 0.2211
vn -0.2938 -0.9550 -0.0412
vn -0.2187 -0.9752 0.0345
vn 0.9980 -0.0182 -0.0608
vn 0.9861 0.1047 0.1289
vn 0.5551 0.1153 0.8237
vn -0.3379 0.9389 0.0649
vn 0.8790 -0.3745 -0.2953
vn 0.9624 0.1989 -0.1849
vn 0.4766 -0.7482 0.4616
vn -0.2175 0.8762 -0.4302
vn -0.0090 0.7260 0.6876
vn 0.0789 -0.9693 0.2328
vn 0.3676 0.8580 -0.3588
vn 0.1262 0.8460 -0.5180
s 0
usemtl TABLE-GLIDES
f 240//255 293//255 294//255
f 287//256 284//256 286//256
f 245//257 246//257 247//257
f 258//258 259//258 245//258
f 258//259 245//259 248//259
f 245//260 248//260 246//260
f 249//261 258//261 248//261
f 249//262 248//262 251//262
f 248//263 251//263 252//263
f 248//264 252//264 246//264
f 250//265 249//265 251//265
f 253//266 250//266 251//266
f 253//267 251//267 254//267
f 251//268 254//268 255//268
f 251//269 255//269 252//269
f 270//270 253//270 254//270
f 270//271 254//271 245//271
f 254//272 245//272 247//272
f 254//273 247//273 255//273
f 259//274 270//274 245//274
f 256//275 257//275 258//275
f 256//276 258//276 259//276
f 257//277 260//277 258//277
f 260//278 261//278 262//278
f 260//279 262//279 258//279
f 262//280 258//280 249//280
f 261//281 263//281 262//281
f 263//282 264//282 262//282
f 262//283 249//283 250//283
f 264//284 265//284 266//284
f 264//285 266//285 262//285
f 266//286 262//286 250//286
f 265//287 267//287 266//287
f 266//288 250//288 253//288
f 267//289 268//289 266//289
f 268//290 269//290 270//290
f 268//291 270//291 266//291
f 270//292 266//292 253//292
f 269//293 271//293 270//293
f 271//294 272//294 259//294
f 271//295 259//295 270//295
f 272//296 256//296 259//296
f 246//297 252//297 255//297
f 246//298 255//298 247//298
f 257//299 267//299 268//299
f 257//300 268//300 256//300
f 268//301 256//301 272//301
f 268//302 272//302 269//302
f 272//255 269//255 271//255
f 267//303 257//303 260//303
f 267//304 260//304 265//304
f 260//305 265//305 264//305
f 260//306 264//306 261//306
f 264//256 261//256 263//256
f 282//307 273//307 274//307
f 273//308 274//308 243//308
f 281//309 282//309 274//309
f 274//310 242//310 243//310
f 285//311 281//311 274//311
f 285//312 274//312 276//312
f 274//313 276//313 242//313
f 275//314 285//314 276//314
f 275//315 276//315 278//315
f 276//316 244//316 242//316
f 277//317 275//317 278//317
f 276//318 278//318 244//318
f 279//319 277//319 278//319
f 279//320 278//320 273//320
f 278//321 273//321 243//321
f 278//322 243//322 244//322
f 282//323 279//323 273//323
f 241//275 280//275 281//275
f 241//276 281//276 282//276
f 280//277 283//277 281//277
f 283//324 284//324 285//324
f 283//325 285//325 281//325
f 284//326 286//326 285//326
f 286//327 287//327 288//327
f 286//328 288//328 285//328
f 288//329 285//329 275//329
f 287//330 289//330 288//330
f 289//331 290//331 288//331
f 288//332 275//332 277//332
f 290//333 291//333 292//333
f 290//334 292//334 288//334
f 292//335 288//335 277//335
f 291//336 293//336 292//336
f 292//337 277//337 279//337
f 293//338 294//338 292//338
f 294//294 240//294 282//294
f 294//339 282//339 292//339
f 282//340 292//340 279//340
f 240//296 241//296 282//296
f 243//341 242//341 244//341
f 280//299 290//299 291//299
f 280//300 291//300 241//300
f 291//301 241//301 240//301
f 291//302 240//302 293//302
f 290//303 280//303 283//303
f 290//304 283//304 289//304
f 283//305 289//305 287//305
f 283//306 287//306 284//306
f 299//342 297//342 298//342
f 298//343 300//343 297//343
f 353//256 352//256 295//256
f 345//255 343//255 346//255
f 309//344 301//344 308//344
f 302//345 303//345 308//345
f 302//346 308//346 301//346
f 312//347 311//347 302//347
f 312//348 302//348 303//348
f 311//349 304//349 302//349
f 305//350 302//350 301//350
f 305//351 301//351 317//351
f 304//352 305//352 302//352
f 305//353 317//353 306//353
f 304//354 320//354 305//354
f 307//355 305//355 306//355
f 320//356 325//356 307//356
f 320//357 307//357 305//357
f 307//358 306//358 324//358
f 303//359 307//359 324//359
f 325//360 303//360 307//360
f 303//361 324//361 308//361
f 325//362 312//362 303//362
f 309//363 310//363 314//363
f 309//364 314//364 313//364
f 310//365 315//365 314//365
f 301//366 309//366 310//366
f 310//367 316//367 315//367
f 310//368 317//368 318//368
f 310//369 318//369 316//369
f 317//370 301//370 310//370
f 317//371 319//371 321//371
f 317//372 321//372 318//372
f 320//373 311//373 304//373
f 319//374 322//374 321//374
f 306//375 317//375 319//375
f 319//376 323//376 322//376
f 319//377 324//377 326//377
f 319//378 326//378 323//378
f 306//379 319//379 324//379
f 324//380 327//380 326//380
f 324//381 328//381 327//381
f 324//382 309//382 329//382
f 324//383 329//383 328//383
f 308//384 324//384 309//384
f 309//385 313//385 329//385
f 312//386 325//386 320//386
f 312//387 320//387 311//387
f 313//304 326//304 323//304
f 313//303 323//303 314//303
f 327//306 329//306 313//306
f 327//305 313//305 326//305
f 328//256 327//256 329//256
f 322//300 315//300 314//300
f 322//299 314//299 323//299
f 316//302 321//302 322//302
f 316//301 322//301 315//301
f 318//255 316//255 321//255
f 339//344 330//344 338//344
f 331//388 338//388 330//388
f 297//389 332//389 331//389
f 332//390 331//390 330//390
f 297//391 299//391 332//391
f 334//392 332//392 330//392
f 334//393 330//393 333//393
f 299//394 335//394 334//394
f 299//395 334//395 332//395
f 334//396 333//396 336//396
f 337//397 334//397 336//397
f 337//398 336//398 348//398
f 335//399 298//399 337//399
f 335//400 337//400 334//400
f 337//401 348//401 350//401
f 331//402 337//402 350//402
f 331//403 350//403 338//403
f 298//404 300//404 331//404
f 298//405 331//405 337//405
f 300//406 297//406 331//406
f 339//363 340//363 341//363
f 339//364 341//364 296//364
f 340//365 342//365 341//365
f 330//366 339//366 340//366
f 340//367 343//367 342//367
f 340//407 344//407 345//407
f 340//369 345//369 343//369
f 333//408 330//408 340//408
f 333//409 340//409 344//409
f 344//338 346//338 345//338
f 344//336 347//336 346//336
f 336//410 333//410 344//410
f 344//411 348//411 349//411
f 344//333 349//333 347//333
f 336//412 344//412 348//412
f 298//413 299//413 335//413
f 348//414 350//414 351//414
f 348//415 351//415 349//415
f 350//380 352//380 351//380
f 350//381 353//381 352//381
f 350//382 339//382 295//382
f 350//383 295//383 353//383
f 338//384 350//384 339//384
f 339//385 296//385 295//385
f 296//304 351//304 349//304
f 296//303 349//303 341//303
f 352//306 295//306 296//306
f 352//305 296//305 351//305
f 347//300 342//300 341//300
f 347//299 341//299 349//299
f 343//302 346//302 347//302
f 343//301 347//301 342//301
o TABLE-TOP
usemtl TABLE-TOP
v 0.734917 0.725252 0.366776
v -0.735235 0.725252 0.366776
v 0.734917 0.695280 0.366776
v -0.735235 0.695280 0.366776
l 354 355
l 356 357
o TABLE-TOPEDGE
usemtl TABLE-TOPEDGE
v -0.735235 0.710266 -0.000000
v 0.734917 0.710266 -0.000000
v 0.734917 0.710266 0.733552
v -0.735235 0.710266 0.733552
l 358 359
l 360 361
l 358 361
l 359 360
o TABLE-TOP
usemtl TABLE-TOP
v 0.7349170 0.7252520 0.0000000
v -0.7352350 0.7252520 0.0000000
v -0.7352350 0.7252520 0.7335520
f 362 363 364
v 0.7349170 0.7252520 0.7335520
f 362 364 365
v 0.7349170 0.6952800 0.7335520
v -0.7352350 0.6952800 0.7335520
v -0.7352350 0.6952800 0.0000000
f 366 367 368
v 0.7349170 0.6952800 0.0000000
f 366 368 369
o TABLE-TOPEDGE
usemtl TABLE-TOPEDGE
v -0.7352350 0.6952800 0.0000000
v -0.7352350 0.7252520 0.0000000
v 0.7349170 0.7252520 0.0000000
f 370 371 372
v 0.7349170 0.6952800 0.0000000
f 370 372 373
v 0.7349170 0.7252520 0.7335520
v -0.7352350 0.7252520 0.7335520
v -0.7352350 0.6952800 0.7335520
f 374 375 376
v 0.7349170 0.6952800 0.7335520
f 374 376 377
f 375 371 370
f 375 370 376
f 377 373 372
f 377 372 374
